<svg xmlns="http://www.w3.org/2000/svg" viewBox="0 0 240 55" role="img" aria-label="Add to Apple Wallet">
  <!-- Recreation of Apple's badge per the published guidelines: black field,
       fully rounded ends, the Apple mark then "Add to Apple Wallet" set in the
       system font. Replace with the official artwork (see README) — the
       component only references the path. -->
  <rect width="240" height="55" rx="8" fill="#000"/>
  <g fill="#fff">
    <!-- Apple mark -->
    <path d="M31.2 27.7c0-3.3 2.7-4.9 2.8-5-1.5-2.2-3.9-2.5-4.7-2.6-2-.2-3.9 1.2-4.9 1.2-1 0-2.6-1.2-4.2-1.1-2.2 0-4.2 1.3-5.3 3.2-2.3 3.9-.6 9.7 1.6 12.9 1.1 1.6 2.4 3.3 4 3.2 1.6-.1 2.2-1 4.2-1s2.5 1 4.2 1c1.7 0 2.8-1.6 3.9-3.1 1.2-1.8 1.7-3.5 1.7-3.6-.1 0-3.3-1.3-3.3-5.1zM28 17.9c.9-1.1 1.5-2.6 1.3-4.1-1.3.1-2.9.9-3.8 1.9-.8.9-1.5 2.5-1.3 3.9 1.4.1 2.9-.7 3.8-1.7z"/>
    <text x="46" y="34.5" font-family="-apple-system,BlinkMacSystemFont,'SF Pro Text','Helvetica Neue',Helvetica,Arial,sans-serif" font-size="19" font-weight="500" letter-spacing="-0.2">Add to Apple Wallet</text>
  </g>
</svg>
