<?xml version="1.0" encoding="UTF-8"?>
<svg id="Layer_1" data-name="Layer 1" xmlns="http://www.w3.org/2000/svg" viewBox="0 0 841.89 595.28">
  <defs>
    <style>
      .cls-1 {
        fill: #a9b1bd;
        font-family: Cairo-SemiBold, Cairo;
        font-size: 22px;
        font-variation-settings: 'wght' 600, 'slnt' 0;
        font-weight: 600;
        isolation: isolate;
      }

      .cls-2 {
        fill: #c35b3f;
      }

      .cls-3 {
        fill: #faf7f2;
      }

      .cls-4 {
        letter-spacing: -.01em;
      }

      .cls-5 {
        fill: #09253f;
      }

      .cls-6 {
        letter-spacing: .06em;
      }

      .cls-7 {
        letter-spacing: .07em;
      }

      .cls-8 {
        letter-spacing: .07em;
      }
    </style>
  </defs>
  <rect class="cls-5" width="841.89" height="595.28"/>
  <g>
    <path class="cls-3" d="M224.3,241.11l57.28,57.28c2.93,2.93,2.93,7.68,0,10.61h0c-2.93,2.93-7.68,2.93-10.61,0l-57.28-57.28c-2.93-2.93-2.93-7.68,0-10.61h0c2.93-2.93,7.68-2.93,10.61,0Z"/>
    <path class="cls-3" d="M213.69,298.38l57.28-57.28c2.93-2.93,7.68-2.93,10.61,0h0c2.93,2.93,2.93,7.68,0,10.61l-57.28,57.28c-2.93,2.93-7.68,2.93-10.61,0h0c-2.93-2.93-2.93-7.68,0-10.61Z"/>
    <circle class="cls-2" cx="247.63" cy="275.05" r="7.5"/>
  </g>
  <g>
    <path class="cls-3" d="M372.06,308.61c-5.38,0-10.24-.93-14.55-2.78-4.32-1.85-7.87-4.5-10.66-7.95-2.79-3.44-4.59-7.54-5.4-12.29l11.3-1.73c1.14,4.58,3.54,8.14,7.18,10.68,3.64,2.54,7.89,3.81,12.76,3.81,3,0,5.78-.47,8.32-1.42s4.58-2.31,6.12-4.1c1.54-1.79,2.31-3.93,2.31-6.44,0-1.35-.23-2.55-.69-3.59-.46-1.04-1.11-1.94-1.93-2.71-.83-.77-1.82-1.44-2.97-2.02s-2.42-1.07-3.8-1.49l-19.21-5.69c-1.87-.54-3.78-1.26-5.71-2.15-1.94-.89-3.71-2.05-5.33-3.48s-2.93-3.22-3.93-5.36c-1-2.14-1.5-4.73-1.5-7.77,0-4.62,1.19-8.54,3.56-11.74,2.37-3.21,5.58-5.63,9.63-7.28,4.04-1.65,8.58-2.46,13.61-2.44,5.07.05,9.61.94,13.61,2.67,4,1.73,7.32,4.23,9.98,7.48s4.49,7.17,5.5,11.76l-11.65,2.01c-.53-2.83-1.64-5.26-3.33-7.29-1.69-2.03-3.77-3.59-6.24-4.67-2.47-1.09-5.14-1.65-8.01-1.7-2.78-.05-5.32.38-7.62,1.28-2.29.9-4.13,2.16-5.5,3.78-1.38,1.62-2.06,3.49-2.06,5.62s.6,3.76,1.81,5.04c1.21,1.28,2.71,2.29,4.5,3.03s3.57,1.36,5.34,1.85l13.83,3.92c1.73.47,3.7,1.12,5.91,1.93,2.21.81,4.34,1.96,6.4,3.42,2.06,1.47,3.77,3.4,5.11,5.8,1.35,2.4,2.02,5.43,2.02,9.09s-.76,7.07-2.29,9.93-3.62,5.26-6.27,7.18c-2.66,1.92-5.71,3.37-9.17,4.34-3.46.98-7.11,1.46-10.97,1.46Z"/>
    <path class="cls-3" d="M433.02,308.57c-3.88,0-7.14-.63-9.78-1.89-2.64-1.26-4.78-2.9-6.43-4.93-1.65-2.03-2.9-4.23-3.77-6.61-.87-2.38-1.46-4.72-1.77-7.01-.31-2.29-.47-4.31-.47-6.04v-31.2h11.02v27.59c0,2.18.18,4.43.55,6.74.36,2.31,1.05,4.46,2.07,6.44s2.45,3.58,4.31,4.79c1.85,1.21,4.27,1.82,7.25,1.82,1.95,0,3.79-.33,5.52-.98,1.73-.65,3.24-1.69,4.55-3.11,1.31-1.42,2.33-3.29,3.09-5.62.75-2.32,1.13-5.14,1.13-8.46l6.76,2.53c0,5.1-.95,9.59-2.86,13.49-1.91,3.9-4.65,6.95-8.22,9.14-3.58,2.2-7.89,3.29-12.94,3.29ZM451.57,307.05v-16.22h-1.28v-39.94h10.95v56.16h-9.67Z"/>
    <path class="cls-3" d="M480.93,307.05v-58.14c0-1.43.05-2.96.16-4.57.11-1.61.41-3.2.91-4.78.5-1.57,1.34-3.01,2.53-4.32,1.43-1.58,3-2.7,4.69-3.35,1.69-.65,3.38-1.03,5.07-1.14,1.69-.11,3.23-.16,4.63-.16h7.07v8.94h-6.55c-2.57,0-4.48.64-5.74,1.91-1.26,1.27-1.89,3.06-1.89,5.37v60.22h-10.89ZM471.64,259.62v-8.74h34.35v8.74h-34.35Z"/>
    <path class="cls-3" d="M514.33,307.05v-56.16h9.67v13.62l-1.35-1.77c.68-1.8,1.58-3.46,2.69-4.96,1.11-1.5,2.4-2.74,3.87-3.71,1.41-1.05,3-1.86,4.76-2.44,1.76-.57,3.56-.92,5.4-1.04s3.59-.03,5.27.29v10.19c-1.81-.5-3.84-.64-6.08-.42s-4.29.93-6.15,2.16c-1.77,1.12-3.17,2.5-4.2,4.14-1.03,1.64-1.78,3.46-2.23,5.45s-.68,4.09-.68,6.28v28.36h-10.95Z"/>
    <path class="cls-3" d="M555.57,241.67v-10.54h10.89v10.54h-10.89ZM555.57,307.05v-56.16h10.89v56.16h-10.89Z"/>
    <path class="cls-3" d="M575.79,307.05l21.01-28.39-20.56-27.77h12.9l14.01,19.27,13.83-19.27h12.9l-20.56,27.77,21.08,28.39h-12.93l-14.32-19.9-14.42,19.9h-12.93Z"/>
  </g>
  <text class="cls-1" transform="translate(344.45 354.05)"><tspan class="cls-4" x="0" y="0">Y</tspan><tspan class="cls-7" x="11.64" y="0">our numbers, </tspan><tspan class="cls-8" x="160.69" y="0">e</tspan><tspan class="cls-6" x="173.34" y="0">x</tspan><tspan class="cls-7" x="184.84" y="0">act.</tspan></text>
</svg>