<svg xmlns="http://www.w3.org/2000/svg" viewBox="259.82 231.22 280.37 128.17" width="280.37" height="128.17"><g transform="translate(156.66666666666669,216.0) scale(1.3333333333333333)"><g stroke="#14181E" stroke-width="13.5" fill="none" stroke-linecap="round" stroke-linejoin="round"><circle cx="258" cy="62" r="15"/><path d="M243 62 Q243 78 224 78 L208 78"/><path d="M194 42 Q208 42 208 56 L208 78 L176 78"/><path d="M152 34 L152 78"/><path d="M122 42 L117 66 Q113 84 92 93"/></g><g transform="translate(258,32) scale(0.08830128886490901,-0.08830128886490901) translate(-121.92376708984375,-559.789306640625)"><path d="M20 540.525146484375V579.053466796875H223.8475341796875V540.525146484375Z" fill="#14181E"/></g><g transform="translate(196,28) scale(0.08830128886490901,-0.08830128886490901) translate(-121.92376708984375,-559.789306640625)"><path d="M20 540.525146484375V579.053466796875H223.8475341796875V540.525146484375Z" fill="#14181E"/></g><g transform="translate(105,24) scale(0.06732171161459549,-0.06732171161459549) translate(-152.09972561753102,-611.1061401367188)"><path d="M83.996826171875 549.4716796875 49.5235595703125 551.902587890625 33.267333984375 633.2122802734375 67.7406005859375 630.7813720703125ZM52.6839599609375 540.525146484375V579.053466796875H124.3192138671875V540.525146484375ZM130.3695068359375 540.525146484375Q116.7374267578125 603.8427734375 131.31683349609375 642.7649536132812Q145.896240234375 681.6871337890625 196.79248046875 681.6871337890625Q231.056640625 681.6871337890625 248.688720703125 664.0023803710938Q266.32080078125 646.317626953125 269.9261474609375 614.6588134765625Q273.531494140625 583 264.2154541015625 540.525146484375L226.6871337890625 548.0518798828125Q238.003173828125 601.42138671875 230.003173828125 622.2901000976562Q222.003173828125 643.1588134765625 196.79248046875 643.1588134765625Q171.581787109375 643.1588134765625 164.02911376953125 622.3427734375Q156.4764404296875 601.5267333984375 167.8978271484375 549.0518798828125ZM60.2625732421875 540.525146484375V579.053466796875H264.2154541015625V540.525146484375Z" fill="#14181E"/></g></g></svg>