<?xml version="1.0" encoding="UTF-8"?>
<svg id="Layer_2" data-name="Layer 2" xmlns="http://www.w3.org/2000/svg" viewBox="0 0 109.15 25.58">
  <defs>
    <style>
      .cls-1 {
        fill: #0a2540;
      }

      .cls-2 {
        fill: #c25b3f;
      }
    </style>
  </defs>
  <g id="Layer_1-2" data-name="Layer 1">
    <g>
      <rect class="cls-1" x="93.78" y="-3.03" width="5.3" height="31.5" rx=".7" ry=".7" transform="translate(19.25 71.91) rotate(-45)"/>
      <g>
        <rect class="cls-1" x="80.58" y="10.21" width="31.5" height="5.3" rx=".7" ry=".7" transform="translate(19.12 71.89) rotate(-45)"/>
        <circle class="cls-2" cx="96.38" cy="12.79" r="2.6"/>
      </g>
    </g>
    <g>
      <path class="cls-1" d="M21.63,18.2v-2.12h1.93v2.12h-1.93ZM5.53,22.75c-1.05,0-2-.19-2.84-.58s-1.5-.92-1.98-1.61c-.48-.68-.72-1.46-.72-2.32,0-.25.02-.58.06-.98s.09-.85.15-1.35c.06-.5.14-1.01.22-1.53.08-.52.16-1.03.23-1.52l2.42.33c-.13.83-.24,1.58-.34,2.26s-.17,1.25-.22,1.73c-.05.47-.08.82-.08,1.05,0,.48.12.9.37,1.26.24.36.6.64,1.06.84.46.2,1.01.3,1.65.3.67,0,1.22-.1,1.63-.3s.72-.47.91-.81c.19-.34.29-.73.29-1.16v-7.5h2.45v7.5c0,.89-.23,1.66-.69,2.32-.46.66-1.09,1.17-1.88,1.53-.8.36-1.7.54-2.72.54ZM10.79,18.2l.03-2.12h1.49c.39,0,.69-.06.9-.17.21-.12.35-.36.44-.72.08-.36.12-.91.12-1.63v-3.61h2.45v3.61c0,1.09-.14,1.98-.42,2.67-.28.69-.71,1.19-1.28,1.5s-1.31.47-2.22.47h-1.52ZM17.03,18.2c-.5,0-1-.1-1.49-.29-.49-.19-.95-.48-1.38-.86l1.5-1.56c.24.2.47.35.69.44.22.09.45.14.67.14h3.44l-1.28,1.15v-4.08c0-.2-.02-.49-.07-.89-.05-.4-.11-.85-.19-1.36-.08-.51-.16-1.03-.26-1.55l2.41-.36c.09.44.17.93.25,1.47.08.54.15,1.06.21,1.54s.09.87.09,1.15v5.04h-4.6ZM23.57,18.2v-2.12c.07,0,.13.02.17.07.05.05.08.12.11.21.03.09.05.2.06.33.01.13.02.27.02.44s0,.31-.02.44c-.01.13-.04.24-.06.34-.03.09-.06.16-.11.21-.05.05-.1.07-.17.07Z"/>
      <path class="cls-1" d="M23.56,18.2v-2.12h9.2l-.79.65v-2.5c0-.63-.07-1.14-.21-1.52s-.34-.66-.62-.83-.62-.26-1.03-.26h-4.03l-1.51-2.2.93-1.76c.11-.2.24-.43.37-.67.14-.24.31-.54.53-.88s.5-.77.84-1.29l2.05,1.16c-.31.47-.57.87-.76,1.18s-.36.59-.49.82-.26.46-.38.69l-.72,1.38-.37-.55h3.54c.78,0,1.45.13,2,.39s.99.61,1.33,1.06.59.96.75,1.52.24,1.15.24,1.76v3.96h-10.86ZM23.56,18.2c-.07,0-.13-.02-.17-.07-.05-.05-.08-.12-.11-.21-.03-.09-.05-.2-.06-.34-.01-.13-.02-.28-.02-.44,0-.22.01-.41.03-.56s.06-.28.12-.36.13-.13.22-.13v2.12Z"/>
      <path class="cls-1" d="M39.94,18.2v-2.12h2.37v2.12h-2.37ZM36.37,22.76c-.15,0-.32,0-.5-.02-.19-.02-.38-.03-.58-.05l.1-2.09c.19,0,.38.02.55.03s.31.02.4.02c.48,0,.86-.19,1.15-.56s.43-.91.43-1.6v-9.48h2.45v9.48c0,.83-.17,1.58-.5,2.22s-.8,1.15-1.4,1.52c-.6.36-1.3.54-2.09.54ZM42.31,18.2v-2.12c.07,0,.13.02.17.07s.08.12.11.21.05.2.06.33.02.27.02.44,0,.31-.02.44c-.01.13-.04.24-.06.34s-.06.16-.11.21c-.05.05-.1.07-.17.07Z"/>
      <path class="cls-1" d="M52.58,18.2v-2.12h1.93v2.12h-1.93ZM42.31,18.2c-.07,0-.13-.02-.17-.07-.05-.05-.08-.12-.11-.21-.03-.09-.05-.2-.06-.34-.01-.13-.02-.28-.02-.44,0-.22.01-.41.03-.56s.06-.28.12-.36.13-.13.22-.13v2.12ZM42.31,18.2v-2.12h8.56l-.74.64v-6.13l.62.52h-2.31c-.54,0-.96.07-1.27.2s-.52.38-.64.74-.19.87-.19,1.54c0,.71.06,1.25.19,1.6s.34.59.64.7c.3.12.73.18,1.27.18v1.89c-1.04,0-1.9-.14-2.57-.43-.67-.29-1.17-.75-1.49-1.4-.32-.64-.48-1.49-.48-2.54s.16-1.85.48-2.54.82-1.2,1.49-1.55,1.53-.52,2.57-.52h4.15v9.21h-10.27ZM54.51,18.2v-2.12c.07,0,.13.02.17.07s.08.12.11.21.05.2.06.33c.01.13.02.27.02.44s0,.31-.02.44c-.01.13-.04.24-.06.34s-.06.16-.11.21c-.05.05-.1.07-.17.07ZM47.46,7.3v-2.09h2.47v2.09h-2.47Z"/>
      <path class="cls-1" d="M65.29,18.2c-.5,0-1-.1-1.49-.29-.49-.19-.95-.48-1.36-.86l1.5-1.56c.24.2.47.35.69.44.22.09.44.14.67.14h3.44l-1.28,1.15v-4.08c0-.2-.02-.49-.06-.89s-.1-.85-.18-1.36c-.08-.51-.17-1.03-.27-1.55l2.41-.36c.09.44.17.93.25,1.47.08.54.16,1.06.22,1.54s.09.87.09,1.15v5.04h-4.62ZM54.51,18.2v-2.12h2.67l-.53.56v-5.78h2.44v7.34h-4.58ZM59.09,18.2v-2.12h1.5c.39,0,.69-.06.9-.17.2-.12.35-.36.43-.72s.12-.91.12-1.63v-3.61h2.45v3.61c0,1.09-.14,1.98-.42,2.67-.28.69-.7,1.19-1.27,1.5s-1.31.47-2.21.47h-1.5ZM54.51,18.2c-.07,0-.13-.02-.17-.07-.05-.05-.08-.12-.11-.21-.03-.09-.05-.2-.06-.34-.01-.13-.02-.28-.02-.44,0-.22.01-.41.03-.56s.06-.28.12-.36.13-.13.22-.13v2.12Z"/>
    </g>
  </g>
</svg>